<mxfile host="app.diagrams.net" modified="2024-04-21T08:29:48.928Z" agent="Mozilla/5.0 (Windows NT 10.0; Win64; x64) AppleWebKit/537.36 (KHTML, like Gecko) Chrome/123.0.0.0 Safari/537.36 Edg/123.0.0.0" etag="lh0h5Pj1YRWMIQp4Ecph" version="24.2.7" type="github">
  <diagram id="C5RBs43oDa-KdzZeNtuy" name="Page-1">
    <mxGraphModel dx="1266" dy="695" grid="0" gridSize="10" guides="1" tooltips="1" connect="1" arrows="1" fold="1" page="0" pageScale="1" pageWidth="827" pageHeight="1169" math="0" shadow="0">
      <root>
        <mxCell id="WIyWlLk6GJQsqaUBKTNV-0" />
        <mxCell id="WIyWlLk6GJQsqaUBKTNV-1" parent="WIyWlLk6GJQsqaUBKTNV-0" />
        <mxCell id="OqBwXAJyE947rPe8EVdQ-38" style="edgeStyle=none;curved=1;rounded=0;orthogonalLoop=1;jettySize=auto;html=1;entryX=0.5;entryY=0;entryDx=0;entryDy=0;fontSize=12;startSize=8;endSize=8;" edge="1" parent="WIyWlLk6GJQsqaUBKTNV-1" source="OqBwXAJyE947rPe8EVdQ-18" target="OqBwXAJyE947rPe8EVdQ-35">
          <mxGeometry relative="1" as="geometry" />
        </mxCell>
        <mxCell id="OqBwXAJyE947rPe8EVdQ-18" value="" style="rounded=1;whiteSpace=wrap;html=1;" vertex="1" parent="WIyWlLk6GJQsqaUBKTNV-1">
          <mxGeometry x="179" y="230" width="470" height="230" as="geometry" />
        </mxCell>
        <mxCell id="OqBwXAJyE947rPe8EVdQ-1" style="edgeStyle=none;curved=1;rounded=0;orthogonalLoop=1;jettySize=auto;html=1;exitX=0.5;exitY=1;exitDx=0;exitDy=0;entryX=0.5;entryY=0;entryDx=0;entryDy=0;fontSize=12;startSize=8;endSize=8;" edge="1" parent="WIyWlLk6GJQsqaUBKTNV-1" source="WIyWlLk6GJQsqaUBKTNV-3" target="OqBwXAJyE947rPe8EVdQ-0">
          <mxGeometry relative="1" as="geometry" />
        </mxCell>
        <mxCell id="WIyWlLk6GJQsqaUBKTNV-3" value="按照“/”切割路由路径" style="rounded=1;whiteSpace=wrap;html=1;fontSize=12;glass=0;strokeWidth=1;shadow=0;" parent="WIyWlLk6GJQsqaUBKTNV-1" vertex="1">
          <mxGeometry x="352" y="108" width="120" height="40" as="geometry" />
        </mxCell>
        <mxCell id="OqBwXAJyE947rPe8EVdQ-45" style="edgeStyle=none;curved=1;rounded=0;orthogonalLoop=1;jettySize=auto;html=1;exitX=0.5;exitY=1;exitDx=0;exitDy=0;fontSize=12;startSize=8;endSize=8;" edge="1" parent="WIyWlLk6GJQsqaUBKTNV-1" source="OqBwXAJyE947rPe8EVdQ-0" target="OqBwXAJyE947rPe8EVdQ-18">
          <mxGeometry relative="1" as="geometry" />
        </mxCell>
        <mxCell id="OqBwXAJyE947rPe8EVdQ-0" value="从路由树的根节点开始进行深度优先搜索" style="rounded=1;whiteSpace=wrap;html=1;fontSize=12;glass=0;strokeWidth=1;shadow=0;" vertex="1" parent="WIyWlLk6GJQsqaUBKTNV-1">
          <mxGeometry x="352" y="168" width="120" height="40" as="geometry" />
        </mxCell>
        <mxCell id="OqBwXAJyE947rPe8EVdQ-5" style="edgeStyle=none;curved=1;rounded=0;orthogonalLoop=1;jettySize=auto;html=1;exitX=1;exitY=0.5;exitDx=0;exitDy=0;entryX=0;entryY=0.5;entryDx=0;entryDy=0;fontSize=12;startSize=8;endSize=8;" edge="1" parent="WIyWlLk6GJQsqaUBKTNV-1" source="OqBwXAJyE947rPe8EVdQ-2" target="OqBwXAJyE947rPe8EVdQ-4">
          <mxGeometry relative="1" as="geometry" />
        </mxCell>
        <mxCell id="OqBwXAJyE947rPe8EVdQ-2" value="静态匹配：如果查找到完全静态匹配的子节点直接返回" style="rounded=1;whiteSpace=wrap;html=1;fontSize=12;glass=0;strokeWidth=1;shadow=0;" vertex="1" parent="WIyWlLk6GJQsqaUBKTNV-1">
          <mxGeometry x="190" y="253" width="120" height="46" as="geometry" />
        </mxCell>
        <mxCell id="OqBwXAJyE947rPe8EVdQ-8" style="edgeStyle=none;curved=1;rounded=0;orthogonalLoop=1;jettySize=auto;html=1;exitX=0.5;exitY=1;exitDx=0;exitDy=0;entryX=0.5;entryY=0;entryDx=0;entryDy=0;fontSize=12;startSize=8;endSize=8;" edge="1" parent="WIyWlLk6GJQsqaUBKTNV-1" source="OqBwXAJyE947rPe8EVdQ-4" target="OqBwXAJyE947rPe8EVdQ-7">
          <mxGeometry relative="1" as="geometry" />
        </mxCell>
        <mxCell id="OqBwXAJyE947rPe8EVdQ-16" value="" style="edgeStyle=none;curved=1;rounded=0;orthogonalLoop=1;jettySize=auto;html=1;fontSize=12;startSize=8;endSize=8;" edge="1" parent="WIyWlLk6GJQsqaUBKTNV-1" source="OqBwXAJyE947rPe8EVdQ-4" target="OqBwXAJyE947rPe8EVdQ-15">
          <mxGeometry relative="1" as="geometry" />
        </mxCell>
        <mxCell id="OqBwXAJyE947rPe8EVdQ-4" value="以“:”开头的路径段" style="rounded=1;whiteSpace=wrap;html=1;fontSize=12;glass=0;strokeWidth=1;shadow=0;" vertex="1" parent="WIyWlLk6GJQsqaUBKTNV-1">
          <mxGeometry x="330" y="256" width="120" height="40" as="geometry" />
        </mxCell>
        <mxCell id="OqBwXAJyE947rPe8EVdQ-7" value="有正则表达式？" style="rhombus;whiteSpace=wrap;html=1;shadow=0;fontFamily=Helvetica;fontSize=12;align=center;strokeWidth=1;spacing=6;spacingTop=-4;" vertex="1" parent="WIyWlLk6GJQsqaUBKTNV-1">
          <mxGeometry x="340" y="326" width="100" height="50" as="geometry" />
        </mxCell>
        <mxCell id="OqBwXAJyE947rPe8EVdQ-9" value="No" style="edgeStyle=orthogonalEdgeStyle;rounded=0;html=1;jettySize=auto;orthogonalLoop=1;fontSize=11;endArrow=block;endFill=0;endSize=8;strokeWidth=1;shadow=0;labelBackgroundColor=none;exitX=1;exitY=0.5;exitDx=0;exitDy=0;entryX=0;entryY=0.5;entryDx=0;entryDy=0;" edge="1" parent="WIyWlLk6GJQsqaUBKTNV-1" source="OqBwXAJyE947rPe8EVdQ-7" target="OqBwXAJyE947rPe8EVdQ-10">
          <mxGeometry y="15" relative="1" as="geometry">
            <mxPoint as="offset" />
            <mxPoint x="162" y="516" as="sourcePoint" />
            <mxPoint x="472" y="351" as="targetPoint" />
          </mxGeometry>
        </mxCell>
        <mxCell id="OqBwXAJyE947rPe8EVdQ-10" value="参数路径匹配：如果查找到参数路径节点，匹配成功进行返回&lt;span class=&quot;eusoft-eudic-chrome-extension-translate-content&quot;&gt;&lt;/span&gt;" style="rounded=1;whiteSpace=wrap;html=1;fontSize=12;glass=0;strokeWidth=1;shadow=0;" vertex="1" parent="WIyWlLk6GJQsqaUBKTNV-1">
          <mxGeometry x="466" y="328.5" width="170" height="45" as="geometry" />
        </mxCell>
        <mxCell id="OqBwXAJyE947rPe8EVdQ-12" value="Yes" style="rounded=0;html=1;jettySize=auto;orthogonalLoop=1;fontSize=11;endArrow=block;endFill=0;endSize=8;strokeWidth=1;shadow=0;labelBackgroundColor=none;edgeStyle=orthogonalEdgeStyle;exitX=0.5;exitY=1;exitDx=0;exitDy=0;entryX=0.5;entryY=0;entryDx=0;entryDy=0;" edge="1" parent="WIyWlLk6GJQsqaUBKTNV-1" source="OqBwXAJyE947rPe8EVdQ-7" target="OqBwXAJyE947rPe8EVdQ-13">
          <mxGeometry y="20" relative="1" as="geometry">
            <mxPoint as="offset" />
            <mxPoint x="112" y="556" as="sourcePoint" />
            <mxPoint x="382" y="436" as="targetPoint" />
          </mxGeometry>
        </mxCell>
        <mxCell id="OqBwXAJyE947rPe8EVdQ-13" value="正则匹配：如果查找到正则节点，匹配成功进行返回&lt;span class=&quot;eusoft-eudic-chrome-extension-translate-content&quot;&gt;&lt;/span&gt;" style="rounded=1;whiteSpace=wrap;html=1;fontSize=12;glass=0;strokeWidth=1;shadow=0;" vertex="1" parent="WIyWlLk6GJQsqaUBKTNV-1">
          <mxGeometry x="330" y="397" width="120" height="49" as="geometry" />
        </mxCell>
        <mxCell id="OqBwXAJyE947rPe8EVdQ-15" value="通配符匹配：如果查找到以“*”开头的子节点，可以匹配任意字符串，匹配成功进行返回&lt;span class=&quot;eusoft-eudic-chrome-extension-translate-content&quot;&gt;&lt;/span&gt;" style="whiteSpace=wrap;html=1;rounded=1;glass=0;strokeWidth=1;shadow=0;" vertex="1" parent="WIyWlLk6GJQsqaUBKTNV-1">
          <mxGeometry x="468" y="246" width="160" height="60" as="geometry" />
        </mxCell>
        <mxCell id="OqBwXAJyE947rPe8EVdQ-35" value="匹配成功？" style="rhombus;whiteSpace=wrap;html=1;shadow=0;fontFamily=Helvetica;fontSize=12;align=center;strokeWidth=1;spacing=6;spacingTop=-4;" vertex="1" parent="WIyWlLk6GJQsqaUBKTNV-1">
          <mxGeometry x="362" y="490" width="100" height="50" as="geometry" />
        </mxCell>
        <mxCell id="OqBwXAJyE947rPe8EVdQ-36" value="No" style="edgeStyle=orthogonalEdgeStyle;rounded=0;html=1;jettySize=auto;orthogonalLoop=1;fontSize=11;endArrow=block;endFill=0;endSize=8;strokeWidth=1;shadow=0;labelBackgroundColor=none;exitX=1;exitY=0.5;exitDx=0;exitDy=0;entryX=0;entryY=0.5;entryDx=0;entryDy=0;" edge="1" parent="WIyWlLk6GJQsqaUBKTNV-1" source="OqBwXAJyE947rPe8EVdQ-35" target="OqBwXAJyE947rPe8EVdQ-42">
          <mxGeometry y="15" relative="1" as="geometry">
            <mxPoint as="offset" />
            <mxPoint x="184" y="680" as="sourcePoint" />
            <mxPoint x="488" y="515" as="targetPoint" />
          </mxGeometry>
        </mxCell>
        <mxCell id="OqBwXAJyE947rPe8EVdQ-37" value="Yes" style="rounded=0;html=1;jettySize=auto;orthogonalLoop=1;fontSize=11;endArrow=block;endFill=0;endSize=8;strokeWidth=1;shadow=0;labelBackgroundColor=none;edgeStyle=orthogonalEdgeStyle;exitX=0.5;exitY=1;exitDx=0;exitDy=0;entryX=0.5;entryY=0;entryDx=0;entryDy=0;" edge="1" parent="WIyWlLk6GJQsqaUBKTNV-1" source="OqBwXAJyE947rPe8EVdQ-35" target="OqBwXAJyE947rPe8EVdQ-43">
          <mxGeometry y="20" relative="1" as="geometry">
            <mxPoint as="offset" />
            <mxPoint x="134" y="720" as="sourcePoint" />
            <mxPoint x="412" y="561" as="targetPoint" />
          </mxGeometry>
        </mxCell>
        <mxCell id="OqBwXAJyE947rPe8EVdQ-42" value="返回路由匹配失败" style="rounded=1;whiteSpace=wrap;html=1;fontSize=12;glass=0;strokeWidth=1;shadow=0;" vertex="1" parent="WIyWlLk6GJQsqaUBKTNV-1">
          <mxGeometry x="508" y="495" width="120" height="40" as="geometry" />
        </mxCell>
        <mxCell id="OqBwXAJyE947rPe8EVdQ-43" value="返回路由匹配成功&lt;div&gt;以及对应的节点相关参数和注册的 HandleFunc&lt;/div&gt;" style="rounded=1;whiteSpace=wrap;html=1;fontSize=12;glass=0;strokeWidth=1;shadow=0;" vertex="1" parent="WIyWlLk6GJQsqaUBKTNV-1">
          <mxGeometry x="337" y="568" width="150" height="40" as="geometry" />
        </mxCell>
      </root>
    </mxGraphModel>
  </diagram>
</mxfile>
